# xmcd
#
# Track frame offsets:
#	150
#	13634
#	30174
#	47942
#	62828
#	79198
#	92451
#	108732
#	124827
#	138187
#	151986
#
# Disc length: 2205 seconds
#
# Revision: 0
# Processed by: cddbd v1.5.2PL0 Copyright (c) Steve Scherf et al.
# Submitted via: audiograbber 1.83.01
#
DISCID=85089b0b
DTITLE=Steve Wariner - Steve Wariner
DYEAR=1982
DGENRE=Country
TTITLE0=Your Memory
TTITLE1=Don't Plan On Sleepin' Tonight
TTITLE2=We'll Never Know
TTITLE3=She Never Meant A Thing To Me
TTITLE4=Well, Hello Again
TTITLE5=Don't It Break Your Heart
TTITLE6=Kansas City Lights
TTITLE7=All Roads Lead To You
TTITLE8=By Now
TTITLE9=Day Break
TTITLE10=I'm Already Taken (Bonus Track)
EXTD=
EXTT0=
EXTT1=
EXTT2=
EXTT3=
EXTT4=
EXTT5=
EXTT6=
EXTT7=
EXTT8=
EXTT9=
EXTT10=
PLAYORDER=
